# xmcd CD database file
# Copyright (C) 1993-1998 Ti Kan
# 
# Track frame offsets:
#     150
#     9627
#     24430
#     41081
#     58956
#     75887
#     94256
#     110383
#     128140
#     149793
#     161960
#     180528
#     198691
#     214846
#     223881
#     236816
#     256823
#     278775
#     293940
#     309605
# 
# Disc length: 4392 seconds
# 
# Revision: 1
# Processed by: cddbd v1.4b41PL1 Copyright (c) Steve Scherf et al.
# Submitted via: DiscPlay 4.0.4
# 
DISCID=38112614
DTITLE=Los Lobos - Collection
DYEAR=1900
DGENRE=
TTITLE0=Cancion Del Mariachi
TTITLE1=I Wanna Be Like You
TTITLE2=Someday
TTITLE3=I Can't Understand
TTITLE4=Blue Moonlight
TTITLE5=Down On The Riverbed
TTITLE6=Be Still
TTITLE7=Bucho's Gracias/Navajas Attack
TTITLE8=One Time One Night
TTITLE9=River Of Tools
TTITLE10=The Neighborhood
TTITLE11=Angels With Dirty Faces
TTITLE12=Kiko And The Lavender Moon
TTITLE13=Come On, Let's Go
TTITLE14=La Bamba
TTITLE15=Bella Maria De Mialma
TTITLE16=What's Going On
TTITLE17=Let Love Reign
TTITLE18=La Pistola Yel Corazon
TTITLE19=Mariachi Suite
EXTD=
EXTT0=
EXTT1=
EXTT2=
EXTT3=
EXTT4=
EXTT5=
EXTT6=
EXTT7=
EXTT8=
EXTT9=
EXTT10=
EXTT11=
EXTT12=
EXTT13=
EXTT14=
EXTT15=
EXTT16=
EXTT17=
EXTT18=
EXTT19=
PLAYORDER=
